<mxfile host="app.diagrams.net" agent="Mozilla/5.0 (Windows NT 10.0; Win64; x64) AppleWebKit/537.36 (KHTML, like Gecko) Chrome/127.0.0.0 Safari/537.36" version="24.7.7">
  <diagram name="Página-1" id="Op7FiMvRSfMlOBJ0hDqU">
    <mxGraphModel dx="840" dy="477" grid="1" gridSize="10" guides="1" tooltips="1" connect="1" arrows="1" fold="1" page="1" pageScale="1" pageWidth="827" pageHeight="1169" math="0" shadow="0">
      <root>
        <mxCell id="0" />
        <mxCell id="1" parent="0" />
        <mxCell id="f2oUN3H5Jz7DGEwyOzhw-22" value="" style="edgeStyle=orthogonalEdgeStyle;rounded=0;orthogonalLoop=1;jettySize=auto;html=1;" edge="1" parent="1" source="f2oUN3H5Jz7DGEwyOzhw-1" target="f2oUN3H5Jz7DGEwyOzhw-21">
          <mxGeometry relative="1" as="geometry" />
        </mxCell>
        <mxCell id="f2oUN3H5Jz7DGEwyOzhw-1" value="&lt;b&gt;&lt;font style=&quot;font-size: 14px;&quot;&gt;Inicio&lt;/font&gt;&lt;/b&gt;" style="ellipse;whiteSpace=wrap;html=1;" vertex="1" parent="1">
          <mxGeometry x="230" y="10" width="120" height="80" as="geometry" />
        </mxCell>
        <mxCell id="f2oUN3H5Jz7DGEwyOzhw-2" value="Ler NUMERO" style="shape=parallelogram;perimeter=parallelogramPerimeter;whiteSpace=wrap;html=1;fixedSize=1;" vertex="1" parent="1">
          <mxGeometry x="210" y="240" width="160" height="60" as="geometry" />
        </mxCell>
        <mxCell id="f2oUN3H5Jz7DGEwyOzhw-3" value="N &amp;lt; 5&amp;nbsp;&amp;nbsp;" style="rhombus;whiteSpace=wrap;html=1;" vertex="1" parent="1">
          <mxGeometry x="210" y="610" width="160" height="140" as="geometry" />
        </mxCell>
        <mxCell id="f2oUN3H5Jz7DGEwyOzhw-8" value="" style="edgeStyle=orthogonalEdgeStyle;rounded=0;orthogonalLoop=1;jettySize=auto;html=1;" edge="1" parent="1" target="f2oUN3H5Jz7DGEwyOzhw-7">
          <mxGeometry relative="1" as="geometry">
            <mxPoint x="290" y="300" as="sourcePoint" />
          </mxGeometry>
        </mxCell>
        <mxCell id="f2oUN3H5Jz7DGEwyOzhw-10" value="" style="edgeStyle=orthogonalEdgeStyle;rounded=0;orthogonalLoop=1;jettySize=auto;html=1;" edge="1" parent="1" source="f2oUN3H5Jz7DGEwyOzhw-7" target="f2oUN3H5Jz7DGEwyOzhw-9">
          <mxGeometry relative="1" as="geometry" />
        </mxCell>
        <mxCell id="f2oUN3H5Jz7DGEwyOzhw-7" value="SOMA = SOMA + NUMERO" style="rounded=0;whiteSpace=wrap;html=1;" vertex="1" parent="1">
          <mxGeometry x="195" y="340" width="190" height="100" as="geometry" />
        </mxCell>
        <mxCell id="f2oUN3H5Jz7DGEwyOzhw-11" value="" style="edgeStyle=orthogonalEdgeStyle;rounded=0;orthogonalLoop=1;jettySize=auto;html=1;" edge="1" parent="1" source="f2oUN3H5Jz7DGEwyOzhw-9" target="f2oUN3H5Jz7DGEwyOzhw-3">
          <mxGeometry relative="1" as="geometry" />
        </mxCell>
        <mxCell id="f2oUN3H5Jz7DGEwyOzhw-9" value="N = (N + 1)" style="rounded=0;whiteSpace=wrap;html=1;" vertex="1" parent="1">
          <mxGeometry x="200" y="480" width="180" height="90" as="geometry" />
        </mxCell>
        <mxCell id="f2oUN3H5Jz7DGEwyOzhw-12" value="" style="edgeStyle=none;orthogonalLoop=1;jettySize=auto;html=1;rounded=0;" edge="1" parent="1">
          <mxGeometry width="100" relative="1" as="geometry">
            <mxPoint x="370" y="680" as="sourcePoint" />
            <mxPoint x="380" y="270" as="targetPoint" />
            <Array as="points">
              <mxPoint x="480" y="680" />
              <mxPoint x="480" y="270" />
            </Array>
          </mxGeometry>
        </mxCell>
        <mxCell id="f2oUN3H5Jz7DGEwyOzhw-13" value="Sim" style="text;html=1;align=center;verticalAlign=middle;resizable=0;points=[];autosize=1;strokeColor=none;fillColor=none;" vertex="1" parent="1">
          <mxGeometry x="410" y="658" width="40" height="30" as="geometry" />
        </mxCell>
        <mxCell id="f2oUN3H5Jz7DGEwyOzhw-15" value="" style="edgeStyle=none;orthogonalLoop=1;jettySize=auto;html=1;rounded=0;" edge="1" parent="1">
          <mxGeometry width="100" relative="1" as="geometry">
            <mxPoint x="290" y="750" as="sourcePoint" />
            <mxPoint x="290" y="820" as="targetPoint" />
            <Array as="points">
              <mxPoint x="290" y="750.38" />
            </Array>
          </mxGeometry>
        </mxCell>
        <mxCell id="f2oUN3H5Jz7DGEwyOzhw-19" value="" style="edgeStyle=orthogonalEdgeStyle;rounded=0;orthogonalLoop=1;jettySize=auto;html=1;" edge="1" parent="1" source="f2oUN3H5Jz7DGEwyOzhw-17" target="f2oUN3H5Jz7DGEwyOzhw-18">
          <mxGeometry relative="1" as="geometry" />
        </mxCell>
        <mxCell id="f2oUN3H5Jz7DGEwyOzhw-17" value="Exibir SOMA" style="shape=display;whiteSpace=wrap;html=1;" vertex="1" parent="1">
          <mxGeometry x="240" y="820" width="100" height="40" as="geometry" />
        </mxCell>
        <mxCell id="f2oUN3H5Jz7DGEwyOzhw-18" value="Fim" style="ellipse;whiteSpace=wrap;html=1;" vertex="1" parent="1">
          <mxGeometry x="230" y="880" width="120" height="60" as="geometry" />
        </mxCell>
        <mxCell id="f2oUN3H5Jz7DGEwyOzhw-20" value="Não" style="text;html=1;align=center;verticalAlign=middle;resizable=0;points=[];autosize=1;strokeColor=none;fillColor=none;" vertex="1" parent="1">
          <mxGeometry x="280" y="760" width="50" height="30" as="geometry" />
        </mxCell>
        <mxCell id="f2oUN3H5Jz7DGEwyOzhw-23" value="" style="edgeStyle=orthogonalEdgeStyle;rounded=0;orthogonalLoop=1;jettySize=auto;html=1;" edge="1" parent="1" source="f2oUN3H5Jz7DGEwyOzhw-21" target="f2oUN3H5Jz7DGEwyOzhw-2">
          <mxGeometry relative="1" as="geometry" />
        </mxCell>
        <mxCell id="f2oUN3H5Jz7DGEwyOzhw-21" value="&amp;nbsp;N= 0&lt;div&gt;&lt;span style=&quot;background-color: initial;&quot;&gt;SOMA = 0&lt;/span&gt;&lt;/div&gt;&lt;div&gt;&lt;span style=&quot;background-color: initial;&quot;&gt;NUMERO&lt;/span&gt;&lt;/div&gt;" style="shape=card;whiteSpace=wrap;html=1;align=center;" vertex="1" parent="1">
          <mxGeometry x="217.5" y="120" width="145" height="80" as="geometry" />
        </mxCell>
      </root>
    </mxGraphModel>
  </diagram>
</mxfile>
